<?xml version="1.0" standalone="no"?>
<!DOCTYPE svg PUBLIC "-//W3C//DTD SVG 20010904//EN"
 "http://www.w3.org/TR/2001/REC-SVG-20010904/DTD/svg10.dtd">
<svg version="1.0" xmlns="http://www.w3.org/2000/svg"
 width="512.000000pt" height="512.000000pt" viewBox="0 0 512.000000 512.000000"
 preserveAspectRatio="xMidYMid meet">
<metadata>
Created by potrace 1.11, written by Peter Selinger 2001-2013
</metadata>
<g transform="translate(0.000000,512.000000) scale(0.100000,-0.100000)"
fill="#000000" stroke="none">
<path d="M2379 5116 c-2 -2 -40 -6 -83 -10 -44 -4 -82 -8 -85 -10 -3 -2 -31
-7 -61 -11 -30 -3 -75 -11 -100 -17 -25 -5 -56 -12 -70 -14 -52 -10 -236 -66
-326 -100 -412 -154 -826 -454 -1084 -784 -19 -25 -37 -47 -40 -50 -7 -7 -45
-61 -105 -150 -176 -260 -312 -589 -374 -905 -40 -200 -46 -267 -45 -515 0
-183 3 -241 19 -345 3 -16 7 -43 9 -60 24 -155 51 -265 103 -415 220 -643 688
-1172 1300 -1471 78 -38 148 -69 155 -69 8 0 18 -4 24 -9 16 -16 245 -89 360
-115 207 -46 317 -58 554 -61 217 -3 262 0 435 25 113 16 364 82 481 125 768
286 1365 934 1579 1713 19 67 39 148 45 180 5 31 12 68 15 82 20 110 30 246
30 425 0 166 -6 285 -19 360 -3 17 -8 44 -10 60 -3 17 -9 53 -15 80 -6 28 -13
61 -15 75 -31 156 -115 389 -206 572 -335 671 -954 1167 -1680 1344 -58 14
-116 28 -130 30 -70 11 -85 14 -195 30 -44 6 -460 15 -466 10z"/>
</g>
</svg>
