<svg id="Icons" enable-background="new 0 0 512 512" height="512" viewBox="0 0 512 512" width="512" xmlns="http://www.w3.org/2000/svg"><g><circle cx="256" cy="256" fill="#6c53a2" r="256"/><g><path d="m5.268 307.92c23.997 116.492 127.136 204.08 250.732 204.08s226.735-87.588 250.732-204.08z" fill="#d48d77"/><g fill="#c17e62"><path d="m288.65 423.76v86.18c-4.57.58-9.17 1.04-13.81 1.37v-87.55c0-3.81 3.09-6.91 6.9-6.91 1.91 0 3.64.77 4.89 2.03 1.25 1.25 2.02 2.98 2.02 4.88z"/><path d="m288.65 307.92v21.26c0 3.81-3.09 6.9-6.91 6.9-3.81 0-6.9-3.09-6.9-6.9v-21.26z"/><path d="m239.242 471.872c-3.814 0-6.906-3.092-6.906-6.906v-127.551c0-3.814 3.092-6.906 6.906-6.906 3.814 0 6.906 3.092 6.906 6.906v127.552c0 3.813-3.092 6.905-6.906 6.905z"/><path d="m189.92 307.92v101c0 3.81-3.09 6.9-6.9 6.9-3.82 0-6.91-3.09-6.91-6.9v-101z"/><path d="m189.92 465.94v37.45c-4.66-1.24-9.26-2.61-13.81-4.11v-33.34c0-3.81 3.09-6.91 6.91-6.91 1.9 0 3.63.77 4.88 2.03 1.25 1.25 2.02 2.98 2.02 4.88z"/><path d="m136.71 369.85v112.71c-4.7-2.48-9.31-5.1-13.82-7.86v-104.85c0-3.81 3.1-6.9 6.91-6.9 1.9 0 3.63.77 4.88 2.02 1.26 1.25 2.03 2.97 2.03 4.88z"/><path d="m82.11 307.92v40.79c0 3.81-3.09 6.9-6.91 6.9-3.81 0-6.9-3.09-6.9-6.9v-40.79z"/><path d="m82.11 383.73v60.14c-4.77-4.42-9.38-9.02-13.81-13.8v-46.34c0-3.81 3.09-6.9 6.9-6.9 1.91 0 3.64.77 4.89 2.02s2.02 2.97 2.02 4.88z"/><path d="m36.96 307.92v80.65c-5.08-8.38-9.69-17.07-13.81-26.04v-54.61z"/><path d="m313.339 471.872c-3.814 0-6.906-3.092-6.906-6.906v-127.551c0-3.814 3.092-6.906 6.906-6.906 3.814 0 6.906 3.092 6.906 6.906v127.552c0 3.813-3.092 6.905-6.906 6.905z"/><path d="m356.8 307.92v73.53c0 3.81-3.09 6.9-6.9 6.9-3.82 0-6.91-3.09-6.91-6.9v-73.53z"/><path d="m356.8 440.54v50.85c-4.53 1.94-9.14 3.76-13.81 5.44v-56.29c0-3.82 3.09-6.91 6.91-6.91 1.9 0 3.63.77 4.88 2.02s2.02 2.98 2.02 4.89z"/><path d="m388.4 459.034c-3.814 0-6.906-3.092-6.906-6.906v-127.551c0-3.814 3.092-6.906 6.906-6.906 3.814 0 6.906 3.092 6.906 6.906v127.552c-.001 3.813-3.092 6.905-6.906 6.905z"/><path d="m435.73 307.92v96.74c0 3.81-3.09 6.9-6.9 6.9-3.82 0-6.91-3.09-6.91-6.9v-96.74z"/><path d="m474.94 347.79v40.94c-4.28 7.04-8.89 13.86-13.81 20.43v-61.37c0-3.82 3.09-6.91 6.91-6.91 1.9 0 3.63.77 4.88 2.02s2.02 2.98 2.02 4.89z"/></g></g><g id="Laptop_3_"><g><g><path d="m269.897 183.303v119.564c0 9.811-7.951 17.762-17.754 17.762h-190.946c-9.811 0-17.762-7.951-17.762-17.762v-119.564c0-1.04.091-2.065.273-3.06 1.435-8.353 8.718-14.702 17.488-14.702h190.945c9.805.001 17.756 7.951 17.756 17.762z" fill="#a583bb"/><path d="m184.604 320.629h-123.407c-9.811 0-17.762-7.951-17.762-17.762v-119.564c0-1.04.091-2.065.273-3.06 74.959 5.817 134.821 65.496 140.896 140.386z" fill="#9175a7"/><path d="m269.897 183.303v91.695c-7.169 1.655-14.633 2.536-22.303 2.536-54.349 0-98.408-44.059-98.408-98.408 0-4.609.319-9.143.934-13.585h102.022c9.804.001 17.755 7.951 17.755 17.762z" fill="#c2aacf"/></g><g><g><path d="m345.986 381.258v11.406c.008.121.008.243 0 .357v.03c-.159 1.883-2.438 3.075-6.705 3.075h-197.833c-7.905 0-19.637-4.063-26.206-9.075l-59.915-45.73c-3.038-2.316-4.435-4.427-4.283-6.029v-11.618h13.6v8.573h190.938c7.905 0 19.637 4.063 26.206 9.075l53.726 40.999v-1.063z" fill="#9175a7"/><path d="m154.206 364.187c0 11.155-1.777 21.885-5.073 31.939h-7.685c-7.905 0-19.637-4.063-26.206-9.075l-59.915-45.73c-3.038-2.316-4.435-4.427-4.283-6.029v-11.618h13.6v8.573h84.488c3.297 10.055 5.074 20.785 5.074 31.94z" fill="#6c53a2"/><path d="m345.986 381.258v11.406c.008.121.008.243 0 .357v.03c-.159 1.883-2.438 3.075-6.705 3.075h-112.509c-20.769-15.051-35.668-37.703-40.627-63.879h69.437c7.905 0 19.637 4.063 26.206 9.075l53.726 40.999v-1.063z" fill="#a583bb"/></g><g><path d="m339.281 384.508h-197.833c-7.905 0-19.637-4.063-26.206-9.075l-59.915-45.73c-6.569-5.012-5.483-9.075 2.422-9.075h197.833c7.905 0 19.637 4.063 26.206 9.075l16.934 12.924 42.981 32.805c6.569 5.013 5.483 9.076-2.422 9.076z" fill="#c2aacf"/><path d="m341.703 375.433-42.981-32.805-16.934-12.924c-6.569-5.012-18.301-9.075-26.206-9.075h-70.964c1.815 24.779 12.431 47.104 28.727 63.879h125.935c7.906 0 8.992-4.063 2.423-9.075z" fill="#decee5"/><path d="m154.206 364.187c0 6.956-.691 13.752-2.012 20.321h-10.745c-7.905 0-19.637-4.063-26.206-9.075l-59.915-45.73c-6.569-5.012-5.483-9.075 2.422-9.075h86.774c6.211 13.222 9.682 27.984 9.682 43.559z" fill="#a583bb"/><path d="m298.723 342.628c-10.525 3.303-23.503 5.24-37.544 5.24-35.174 0-63.696-12.196-63.696-27.239h58.1c7.905 0 19.637 4.063 26.206 9.075z" fill="#fff"/></g></g><g><path d="m262.303 189.28v100.017c0 8.915-7.229 16.144-16.144 16.144h-178.985c-8.915 0-16.144-7.229-16.144-16.144v-100.017c0-2.916.775-5.65 2.134-8.011 2.772-4.86 8.011-8.133 14.01-8.133h178.985c8.915-.001 16.144 7.229 16.144 16.144z" fill="#f9c744"/></g><path d="m163.75 307.718h-14.165c-2.936 0-5.316 2.38-5.316 5.316 0 2.936 2.38 5.316 5.316 5.316h14.165c2.936 0 5.316-2.38 5.316-5.316 0-2.936-2.38-5.316-5.316-5.316z" fill="#6c53a2"/><g><g><g fill="#3e4e60"><path d="m133.649 333.227h-19.637l-.304-.235-4.974-3.797c-.873-.661-.402-2.05.691-2.05h19.63l.304.235 3.683 2.81h.008l1.291.987c.865.66.394 2.05-.692 2.05z"/><path d="m118.963 346.266h-18.825l-.296-.228c-.008 0-.008-.008-.015-.008l-7.123-5.437c-.873-.661-.402-2.05.691-2.05h18.825l.304.235 5.84 4.45 1.291.987c.865.669.394 2.051-.692 2.051z"/><path d="m165.414 333.227h-19.63l-.304-.235-4.974-3.797c-.873-.661-.402-2.05.691-2.05h19.63l.304.235 3.683 2.81 1.299.987c.038.03.076.061.106.091.714.691.243 1.959-.805 1.959z"/><path d="m228.959 333.227h-19.63l-.304-.235-4.982-3.797c-.866-.661-.395-2.05.691-2.05h19.637l.304.235 3.683 2.81 1.291.987c.874.66.403 2.05-.69 2.05z"/><path d="m197.186 333.227h-19.63l-.304-.235-4.982-3.797c-.038-.03-.076-.061-.106-.091-.714-.691-.243-1.959.805-1.959h19.63l.304.235 3.683 2.81 1.291.987c.874.66.403 2.05-.691 2.05z"/><path d="m169.841 360.853h-19.63l-.273-.213c-.015 0-.023-.008-.03-.015l-9.158-6.994c-.866-.661-.395-2.05.699-2.05h19.63l.304.235 7.86 5.999h.008l1.291.987c.038.03.076.061.106.091.712.7.241 1.96-.807 1.96z"/><path d="m265.158 360.853h-19.63l-.228-.175c-.008 0-.008-.008-.015-.008-.023-.015-.046-.03-.068-.046l-8.148-6.227-.069-.052-.934-.714c-.873-.661-.402-2.05.691-2.05h19.63l.296.228c.008 0 .008.008.015.008l7.86 5.999 1.291.987c.873.668.403 2.05-.691 2.05z"/><path d="m201.614 360.853h-19.63l-.273-.213c-.015 0-.023-.008-.03-.015l-9.158-6.994c-.866-.661-.402-2.05.691-2.05h19.63l.296.228c.008 0 .008.008.015.008l7.86 5.999 1.291.987c.872.668.401 2.05-.692 2.05z"/><path d="m233.386 360.853h-19.63l-.273-.213c-.015 0-.023-.008-.03-.015l-9.158-6.994c-.866-.661-.402-2.05.691-2.05h19.63l.296.228c.008 0 .008.008.015.008l7.86 5.999 1.291.987c.872.668.401 2.05-.692 2.05z"/><path d="m101.877 333.227h-18.673c-.114-.106-.22-.213-.319-.319-.008 0-.008 0-.015-.008-.144-.144-.281-.296-.41-.44-.121-.137-.235-.281-.349-.418v-.008c-.053-.068-.106-.137-.159-.213-.099-.137-.182-.273-.266-.41-.038-.061-.076-.129-.114-.197-.015-.023-.03-.046-.038-.068-.061-.106-.106-.213-.152-.319s-.084-.205-.114-.304c-.008-.038-.023-.068-.03-.099-.068-.235-.099-.463-.099-.676 0-.494.175-.934.532-1.306.205-.22.478-.425.813-.592.471-.243 1.063-.425 1.777-.539.638-.114 1.382-.167 2.217-.167h10.806l.296.228c.008 0 .008.008.015.008l3.683 2.81 1.291.987c.865.66.402 2.05-.692 2.05z"/><path d="m138.077 360.853h-7.434c-1.572 0-3.334-.205-5.179-.57-.919-.182-1.86-.402-2.802-.661-.478-.129-.949-.266-1.428-.418-.471-.144-.949-.304-1.42-.463-.471-.16-.942-.334-1.405-.516-.463-.175-.926-.365-1.382-.554-.456-.19-.911-.387-1.352-.592-.44-.205-.881-.418-1.306-.63-.213-.106-.425-.22-.63-.334-.19-.099-.38-.197-.562-.304-.22-.122-.448-.243-.661-.372-.395-.228-.782-.463-1.154-.706-.372-.235-.729-.486-1.071-.729-.167-.122-.334-.251-.501-.372-.873-.661-.402-2.05.691-2.05h18.825l.304.235 7.867 5.999 1.291.987c.865.668.395 2.05-.691 2.05z"/><path d="m258.681 333.227h-17.58l-.296-.228c-.008 0-.008-.008-.015-.008l-4.974-3.797c-.866-.661-.402-2.05.691-2.05h7.427c.205 0 .418 0 .63.008.129.008.258.015.387.023.099 0 .19.008.289.015.099 0 .197.015.296.023.205.015.41.03.623.053.03 0 .068.008.099.008.167.015.334.038.501.061.304.038.615.076.934.129.235.038.486.076.729.122.258.046.516.091.775.144.084.015.175.038.266.053.038.008.068.015.106.023.273.061.554.122.835.19.228.053.456.106.683.167.084.023.175.046.258.068.995.251 1.99.547 2.977.889.334.106.661.228.987.342.646.228 1.276.471 1.898.729.137.053.281.114.418.182.152.061.296.121.44.182.053.023.099.046.152.068.311.137.623.281.934.425 1.117.516.76 2.179-.47 2.179z"/><path d="m293.445 358.423-.023.182c-.023.122-.061.235-.099.342-.023.061-.053.114-.076.167-.068.129-.152.251-.251.365l-.008.008c-.023.03-.046.046-.068.076-.046.053-.099.099-.152.144-.053.046-.114.091-.167.137-.015.008-.023.015-.03.023 0 0-.008 0-.008.008-.03.015-.053.03-.084.053-.03.015-.053.038-.084.053-.068.046-.144.083-.213.121-.053.03-.114.061-.167.084-.114.061-.235.114-.364.159-.023.008-.046.015-.068.023-.008 0-.015.008-.023.008h-.008c-.137.053-.273.091-.425.137-.197.061-.41.106-.638.144-.076.015-.159.03-.235.038-.152.03-.319.053-.486.068-.099.008-.205.023-.304.03-.053.008-.106.008-.159.015-.061.008-.114.008-.167.008-.129.015-.258.023-.387.023-.213.008-.425.015-.646.015h-10.806l-.228-.175c-.008 0-.008-.008-.015-.008-.023-.015-.046-.03-.068-.046l-8.148-6.227-.068-.053-.934-.714c-.873-.661-.402-2.05.691-2.05h18.825l.304.235 2.377 1.815c1.952 1.488 3.053 2.87 3.341 4.017.023.091.038.182.053.273.008.015.008.03.008.046.023.16.023.312.008.456z"/><path d="m150.728 346.266h-19.63l-.304-.235-7.131-5.437c-.038-.03-.076-.061-.106-.091-.714-.691-.243-1.959.805-1.959h19.63l.304.235 5.832 4.45h.008l1.291.987c.038.03.076.061.106.091.714.698.243 1.959-.805 1.959z"/><path d="m246.045 346.266h-19.63l-.296-.228c-.008 0-.008-.008-.015-.008l-7.123-5.437c-.873-.661-.402-2.05.691-2.05h19.63l.296.228c.008 0 .008.008.015.008l5.832 4.45 1.291.987c.873.668.402 2.05-.691 2.05z"/><path d="m182.5 346.266h-19.63l-.304-.235-7.13-5.437c-.866-.661-.395-2.05.699-2.05h19.63l.304.235 5.832 4.45 1.291.987c.872.668.402 2.05-.692 2.05z"/><path d="m214.272 346.266h-19.63l-.304-.235-7.131-5.437c-.866-.661-.402-2.05.691-2.05h19.63l.296.228c.008 0 .008.008.015.008l5.832 4.45 1.291.987c.875.667.404 2.049-.69 2.049z"/><path d="m277.004 346.266h-18.817l-.296-.228c-.008 0-.008-.008-.015-.008l-7.123-5.437c-.873-.661-.402-2.05.691-2.05h18.825l.304.235 5.84 4.45 1.291.987c.865.669.394 2.051-.7 2.051z"/></g><g fill="#3f5d77"><path d="m133.042 330.19h-15.605c-.251 0-.494-.084-.691-.235l-3.683-2.81h15.992l.304.235z"/><path d="m118.363 343.228h-14.8c-.251 0-.494-.084-.699-.235l-5.832-4.45h15.188l.304.235z"/><path d="m164.814 330.19h-15.605c-.251 0-.494-.084-.691-.235l-3.683-2.81h15.992l.304.235z"/><path d="m228.359 330.19h-15.605c-.251 0-.494-.084-.691-.235l-3.683-2.81h15.992l.304.235z"/><path d="m196.587 330.19h-15.605c-.251 0-.494-.084-.691-.235l-3.683-2.81h15.992l.304.235z"/><path d="m169.241 357.816h-15.605c-.251 0-.494-.076-.691-.228l-7.867-6.007h16l.304.235z"/><path d="m264.558 357.816h-15.605c-.251 0-.494-.076-.699-.228l-7.86-6.007h15.992l.296.228c.008 0 .008.008.015.008z"/><path d="m201.014 357.816h-15.605c-.251 0-.494-.076-.691-.228l-7.867-6.007h15.992l.296.228c.008 0 .008.008.015.008z"/><path d="m232.786 357.816h-15.605c-.251 0-.494-.076-.691-.228l-7.867-6.007h15.992l.296.228c.008 0 .008.008.015.008z"/><path d="m101.277 330.19h-14.565c-.296 0-.592-.114-.805-.327-.911-.934-1.458-1.792-1.648-2.552.638-.114 1.382-.167 2.217-.167h10.806l.296.228c.008 0 .008.008.015.008z"/><path d="m137.477 357.816h-3.797c-3.144 0-7.047-.805-10.829-2.111-3.129-1.086-6.181-2.521-8.619-4.123h15.074l.304.235z"/><path d="m257.207 330.19h-12.682c-.251 0-.494-.084-.699-.235l-3.683-2.81h3.789c.205 0 .418 0 .63.008.129.008.258.015.387.023.099 0 .19.008.289.015.099 0 .197.015.296.023.205.015.41.03.623.053.03 0 .068.008.099.008.167.015.334.038.501.061.304.038.615.076.934.129.235.038.486.076.729.122.258.046.516.091.775.144.084.015.175.038.266.053.038.008.068.015.106.023.273.061.554.122.835.19.228.053.456.106.683.167.084.023.175.046.258.068.995.251 1.99.547 2.977.889.334.106.661.228.987.342.648.225 1.278.468 1.9.727z"/><path d="m293.377 357.649c-.645.106-1.39.167-2.233.167h-10.419c-.251 0-.494-.076-.699-.228l-7.86-6.007h15.188l.304.235 2.377 1.815c1.952 1.489 3.053 2.871 3.342 4.018z"/><path d="m150.128 343.228h-15.605c-.251 0-.494-.084-.691-.235l-5.84-4.45h16l.304.235z"/><path d="m245.445 343.228h-15.605c-.251 0-.494-.084-.699-.235l-5.832-4.45h15.992l.296.228c.008 0 .008.008.015.008z"/><path d="m181.9 343.228h-15.605c-.251 0-.494-.084-.691-.235l-5.84-4.45h16l.304.235z"/><path d="m213.672 343.228h-15.605c-.251 0-.494-.084-.691-.235l-5.84-4.45h15.992l.296.228c.008 0 .008.008.015.008z"/><path d="m276.412 343.228h-14.8c-.251 0-.494-.084-.699-.235l-5.832-4.45h15.188l.304.235z"/></g></g><g><path d="m258.916 378.44h-66.574c-2.658 0-6.607-1.367-8.816-3.06l-3.288-2.506-7.381-5.634c-2.21-1.686-1.845-3.053.813-3.053h66.574c2.658 0 6.607 1.367 8.816 3.053l10.677 8.14c.706.539 1.147 1.048 1.329 1.488.409.934-.343 1.572-2.15 1.572z" fill="#3f5d77"/><path d="m258.916 378.44h-66.574c-2.658 0-6.607-1.367-8.816-3.06l-3.288-2.506c-.402-.934.342-1.564 2.157-1.564h66.567c2.665 0 6.614 1.367 8.824 3.053l3.281 2.506c.408.933-.344 1.571-2.151 1.571z" fill="#3e4e60"/></g></g><g fill="#fff"><path d="m232.511 173.136h-49.017c-2.097 0-3.797-1.7-3.797-3.797 0-2.097 1.7-3.797 3.797-3.797h49.017c2.097 0 3.797 1.7 3.797 3.797 0 2.097-1.7 3.797-3.797 3.797z"/><path d="m324.385 374.909h-47.988c-2.651 0-4.799 2.149-4.799 4.799 0 2.651 2.149 4.799 4.799 4.799h47.988c2.651 0 4.799-2.149 4.799-4.799 0-2.651-2.149-4.799-4.799-4.799z"/></g></g><g><path d="m179.683 235.973h-.703l3.28-4.844h-.005c1.445-1.963 2.301-4.389 2.301-7.016v-5.308c0-6.551-5.308-11.86-11.86-11.86h-1.456v-13.974c0-2.278-1.847-4.13-4.13-4.13h-4.239c-2.283 0-4.13 1.852-4.13 4.13v13.974h-6.844v-13.974c0-2.278-1.847-4.13-4.13-4.13h-4.239c-2.283 0-4.13 1.852-4.13 4.13v13.974h-16.188c-2.283 0-4.13 1.847-4.13 4.13v4.239c0 2.283 1.847 4.13 4.13 4.13h9.112v39.69h-9.112c-2.283 0-4.13 1.847-4.13 4.13v4.239c0 2.283 1.847 4.13 4.13 4.13h16.188v13.974c0 2.278 1.847 4.13 4.13 4.13h4.239c.208 0 .411-.015.609-.045 1.996-.297 3.521-2.015 3.521-4.085v-13.974h6.844v13.974c0 2.278 1.847 4.13 4.13 4.13h4.239c.208 0 .411-.015.609-.045 1.996-.297 3.521-2.015 3.521-4.085v-13.974h8.443c3.872 0 7.398-1.51 10.008-3.991 2.808-2.644 4.561-6.408 4.561-10.577v-6.522c-.001-8.048-6.527-14.57-14.569-14.57zm-27.786-16.529h15.252c2.763 0 5.006 2.243 5.006 5.011v.827c0 2.253-1.486 4.15-3.521 4.784-.47.144-.971.223-1.486.223h-15.252v-10.845zm27.375 32.92c0 2.58-1.441 4.823-3.565 5.967-.956.51-2.045.802-3.204.802h-20.605v-14.658h20.605c3.739 0 6.769 3.031 6.769 6.769z" fill="#dd5e26"/><path d="m176.157 241.163h-6.982c4.075 0 7.671-2.055 9.805-5.19.599-.872 1.08-1.827 1.421-2.847.411-1.198.634-2.486.634-3.823v-5.308c0-6.551-5.308-11.86-11.86-11.86h-1.456v-13.975c0-2.278-1.847-4.13-4.13-4.13h-4.244c-.203 0-.406.015-.604.045v18.06h-10.364v-13.975c0-2.278-1.852-4.13-4.13-4.13h-4.244c-.203 0-.406.015-.604.045v18.06h-19.714c-.203 0-.406.015-.604.045v3.135c0 2.283 1.847 4.13 4.13 4.13h9.112v44.879h-12.637c-.203 0-.406.015-.604.045v3.135c0 2.283 1.847 4.13 4.13 4.13h16.188v13.974c0 2.278 1.847 4.13 4.13 4.13h4.239c.208 0 .411-.015.609-.045v-18.06h10.364v13.974c0 2.278 1.847 4.13 4.13 4.13h4.239c.208 0 .411-.015.609-.045v-18.06h11.964c3.872 0 7.398-1.51 10.008-3.991.669-1.669 1.035-3.486 1.035-5.388v-6.522c-.002-8.047-6.523-14.568-14.57-14.568zm-27.78-21.719h18.773c2.763 0 5.006 2.243 5.006 5.011v.827c0 9.8-4.724 10.196-8.532 10.196h-15.247zm30.895 32.92c0 9.651-2.347 11.959-10.29 11.959h-20.605v-19.847h24.126c3.739 0 6.769 3.031 6.769 6.769z" fill="#ea792e"/></g></g><g><path d="m298.636 192.389c-28.32 5.472-55.72-13.054-61.193-41.381s13.052-55.727 41.373-61.199c28.327-5.473 55.727 13.052 61.2 41.38 5.474 28.327-13.052 55.726-41.38 61.2z" fill="#6c53a2"/><g id="Magnifying-glass_2_"><g><path d="m347.402 166.007h24.222v45.911h-24.222z" fill="#c1b7d3" transform="matrix(.56 -.828 .828 .56 1.604 380.945)"/><path d="m347.28 166.071 38.033 25.716c-2.809 4.154-8.455 5.25-12.615 2.437l-22.981-15.538c-4.153-2.808-5.245-8.461-2.437-12.615z" fill="#ebd9ea"/><path d="m371.746 211.853-30.702-20.759c2.267-3.353 6.825-4.238 10.183-1.968l18.551 12.543c3.354 2.268 4.236 6.831 1.968 10.184z" fill="#9f90ae"/><path d="m347.28 166.071 25.704 17.38c-2.809 4.154-8.455 5.25-12.615 2.437l-10.652-7.202c-4.153-2.808-5.245-8.461-2.437-12.615z" fill="#fff"/></g><g><path d="m404.829 191.256 73.788 49.891c10.742 7.263 13.563 21.863 6.3 32.605-3.455 5.11-8.558 8.421-14.125 9.711-6.14 1.437-12.841.401-18.48-3.411l-73.788-49.891c-5.639-3.812-9.09-9.641-10.05-15.879-.871-5.643.301-11.613 3.756-16.722.573-.848 1.196-1.653 1.857-2.397 3.514-3.992 8.174-6.544 13.135-7.508 5.905-1.14 12.233-.032 17.607 3.601z" fill="#22bce0"/><path d="m386.946 217.706 73.788 49.891c5.633 3.808 9.094 9.635 10.058 15.867-6.14 1.437-12.841.401-18.48-3.411l-73.788-49.891c-5.639-3.812-9.09-9.641-10.05-15.879.29-.067.576-.127.869-.184 5.9-1.135 12.228-.027 17.603 3.607z" fill="#22a8b9"/><path d="m404.829 191.256 73.241 49.521c-7.689 8.729-20.853 10.593-30.748 3.903l-73.235-49.517c3.514-3.992 8.174-6.544 13.135-7.508 5.905-1.14 12.233-.032 17.607 3.601z" fill="#4fcae8"/><path d="m387.222 187.656c5.904-1.141 12.233-.033 17.607 3.601l38.123 25.777c-7.689 8.729-20.853 10.593-30.748 3.903l-38.117-25.773c3.514-3.993 8.174-6.544 13.135-7.508z" fill="#83d5ef"/></g><g><path d="m274.696 68.485c-40.097 7.747-66.325 46.538-58.576 86.643s46.538 66.325 86.636 58.578c40.104-7.749 66.334-46.533 58.585-86.637-7.75-40.105-46.541-66.333-86.645-58.584zm23.94 123.904c-28.32 5.472-55.72-13.054-61.193-41.381s13.052-55.727 41.373-61.199c28.327-5.473 55.727 13.052 61.2 41.38 5.474 28.327-13.052 55.726-41.38 61.2z" fill="#f39e22"/><path d="m276.871 79.742c-33.885 6.547-56.05 39.321-49.502 73.212 6.547 33.885 39.328 56.049 73.212 49.502 33.892-6.548 56.056-39.329 49.509-73.214-6.548-33.891-39.327-56.049-73.219-49.5zm21.765 112.647c-28.32 5.472-55.72-13.054-61.193-41.381s13.052-55.727 41.373-61.199c28.327-5.473 55.727 13.052 61.2 41.38 5.474 28.327-13.052 55.726-41.38 61.2z" fill="#dd8c29"/><g><path d="m324.804 140.41c-3.345.646-6.58-1.541-7.226-4.886-3.073-15.906-18.515-26.347-34.422-23.274-3.345.646-6.58-1.541-7.226-4.886s1.541-6.58 4.886-7.226c22.585-4.364 44.51 10.46 48.874 33.045.646 3.346-1.542 6.581-4.886 7.227z" fill="#fff"/></g><g><path d="m296.644 182.058c-22.585 4.364-44.51-10.46-48.874-33.045-.646-3.345 1.541-6.58 4.886-7.226s6.58 1.541 7.226 4.886c3.073 15.906 18.515 26.347 34.422 23.274 3.345-.646 6.58 1.541 7.226 4.886.646 3.343-1.541 6.578-4.886 7.225z" fill="#57409b"/></g></g></g></g></g></svg>